<mxfile host="65bd71144e">
    <diagram id="GrpZCegqyQvZPx4EdK1o" name="Page-1">
        <mxGraphModel dx="491" dy="806" grid="1" gridSize="10" guides="1" tooltips="1" connect="1" arrows="1" fold="1" page="1" pageScale="1" pageWidth="827" pageHeight="1169" background="#FFFFFF" math="0" shadow="1">
            <root>
                <mxCell id="0"/>
                <mxCell id="1" parent="0"/>
                <mxCell id="2" value="Book" style="whiteSpace=wrap;html=1;align=center;" parent="1" vertex="1">
                    <mxGeometry x="620" y="130" width="100" height="40" as="geometry"/>
                </mxCell>
                <mxCell id="17" value="User" style="whiteSpace=wrap;html=1;align=center;" parent="1" vertex="1">
                    <mxGeometry x="150" y="144" width="100" height="40" as="geometry"/>
                </mxCell>
                <mxCell id="23" value="Account_ID" style="ellipse;whiteSpace=wrap;html=1;align=center;" vertex="1" parent="1">
                    <mxGeometry x="50" y="120" width="80" height="24" as="geometry"/>
                </mxCell>
                <mxCell id="26" value="Notification" style="whiteSpace=wrap;html=1;align=center;" vertex="1" parent="1">
                    <mxGeometry x="155" y="310" width="100" height="40" as="geometry"/>
                </mxCell>
                <mxCell id="28" value="History" style="shape=ext;margin=3;double=1;whiteSpace=wrap;html=1;align=center;gradientColor=none;" vertex="1" parent="1">
                    <mxGeometry x="150" y="470" width="100" height="40" as="geometry"/>
                </mxCell>
                <mxCell id="30" value="Rent_list" style="whiteSpace=wrap;html=1;align=center;" vertex="1" parent="1">
                    <mxGeometry x="150" y="40" width="100" height="40" as="geometry"/>
                </mxCell>
                <mxCell id="31" value="Record" style="whiteSpace=wrap;html=1;align=center;" vertex="1" parent="1">
                    <mxGeometry x="380" y="130" width="100" height="40" as="geometry"/>
                </mxCell>
                <mxCell id="38" value="Rent_time" style="ellipse;whiteSpace=wrap;html=1;align=center;" vertex="1" parent="1">
                    <mxGeometry x="275" y="45" width="80" height="30" as="geometry"/>
                </mxCell>
                <mxCell id="40" value="Account_status" style="ellipse;whiteSpace=wrap;html=1;align=center;" vertex="1" parent="1">
                    <mxGeometry x="40" y="165" width="100" height="40" as="geometry"/>
                </mxCell>
                <mxCell id="42" value="Account" style="ellipse;whiteSpace=wrap;html=1;align=center;" vertex="1" parent="1">
                    <mxGeometry x="265" y="340" width="100" height="40" as="geometry"/>
                </mxCell>
                <mxCell id="43" value="Sort" style="ellipse;whiteSpace=wrap;html=1;align=center;" vertex="1" parent="1">
                    <mxGeometry x="580" y="80" width="60" height="30" as="geometry"/>
                </mxCell>
                <mxCell id="44" value="Name" style="ellipse;whiteSpace=wrap;html=1;" vertex="1" parent="1">
                    <mxGeometry x="650" y="80" width="60" height="30" as="geometry"/>
                </mxCell>
                <mxCell id="46" value="Publisher" style="ellipse;whiteSpace=wrap;html=1;align=center;" vertex="1" parent="1">
                    <mxGeometry x="720" y="80" width="70" height="30" as="geometry"/>
                </mxCell>
                <mxCell id="47" value="Return_notification" style="ellipse;whiteSpace=wrap;html=1;" vertex="1" parent="1">
                    <mxGeometry x="30" y="290" width="115" height="40" as="geometry"/>
                </mxCell>
                <mxCell id="48" value="Remaining" style="ellipse;whiteSpace=wrap;html=1;align=center;" vertex="1" parent="1">
                    <mxGeometry x="730" y="135" width="70" height="30" as="geometry"/>
                </mxCell>
                <mxCell id="49" value="Borrow_count" style="ellipse;whiteSpace=wrap;html=1;align=center;" vertex="1" parent="1">
                    <mxGeometry x="255" y="473" width="80" height="40" as="geometry"/>
                </mxCell>
                <mxCell id="50" value="Return_confirmation" style="ellipse;whiteSpace=wrap;html=1;" vertex="1" parent="1">
                    <mxGeometry x="30" y="340" width="115" height="40" as="geometry"/>
                </mxCell>
                <mxCell id="51" value="Rent_condition" style="ellipse;whiteSpace=wrap;html=1;align=center;" vertex="1" parent="1">
                    <mxGeometry x="580" y="190" width="100" height="40" as="geometry"/>
                </mxCell>
                <mxCell id="53" value="Borrow_time" style="ellipse;whiteSpace=wrap;html=1;align=center;" vertex="1" parent="1">
                    <mxGeometry x="250" y="520" width="80" height="40" as="geometry"/>
                </mxCell>
                <mxCell id="55" value="Rentable" style="ellipse;whiteSpace=wrap;html=1;align=center;" vertex="1" parent="1">
                    <mxGeometry x="265" y="290" width="100" height="40" as="geometry"/>
                </mxCell>
                <mxCell id="54" value="Borrow_name" style="ellipse;whiteSpace=wrap;html=1;align=center;" vertex="1" parent="1">
                    <mxGeometry x="120" y="520" width="100" height="40" as="geometry"/>
                </mxCell>
                <mxCell id="56" value="de/activated?" style="text;html=1;strokeColor=none;fillColor=none;align=center;verticalAlign=middle;whiteSpace=wrap;rounded=0;" vertex="1" parent="1">
                    <mxGeometry x="60" y="205" width="60" height="30" as="geometry"/>
                </mxCell>
                <mxCell id="57" value="Time_remaining" style="ellipse;whiteSpace=wrap;html=1;align=center;" vertex="1" parent="1">
                    <mxGeometry x="700" y="190" width="100" height="40" as="geometry"/>
                </mxCell>
            </root>
        </mxGraphModel>
    </diagram>
</mxfile>